PathFileType	4	(X/Y/Z)	C:\Users\Basilio\Documents\Thesis Gigler\squatting_fais\c3dfiles\075\SJ_pre2\markers_experimental.trc
DataRate	CameraRate	NumFrames	NumMarkers	Units	OrigDataRate	OrigDataStartFrame	OrigNumFrames
200.000000	200.000000	4	61	mm	200.000000	1059	1695
Frame#	Time	FHD			LBHD			C7			T10			CLAV			LSHO			LUUPA			LMUPA			LDUPA			LLEP			LMEP			LRAD			LUL			LRFIN			RSHO			RUPA1			RMUPA			RDUPA			RLEP			RMEP			RRAD			RUL			RUFIN			LASI			RASI			USACR			LSACR			RSACR			LTHI1			LTHI2			LTHI3			LTHI4			LLFC			LMFC			LTIB1			LTIB2			LTIB3			LTIB4			LLMAL			LMMAL			LHEE			LMT1			LMT2			LMT5			RTHI			RTHI2			RTHI3			RTHI4			RLFC			RMFC			RTIB1			RTIB2			RTIB3			RTIB4			RLMAL			RMMAL			RHEE			RMT1			RMT2			RMT5			RBHD			
		X1	Y1	Z1	X2	Y2	Z2	X3	Y3	Z3	X4	Y4	Z4	X5	Y5	Z5	X6	Y6	Z6	X7	Y7	Z7	X8	Y8	Z8	X9	Y9	Z9	X10	Y10	Z10	X11	Y11	Z11	X12	Y12	Z12	X13	Y13	Z13	X14	Y14	Z14	X15	Y15	Z15	X16	Y16	Z16	X17	Y17	Z17	X18	Y18	Z18	X19	Y19	Z19	X20	Y20	Z20	X21	Y21	Z21	X22	Y22	Z22	X23	Y23	Z23	X24	Y24	Z24	X25	Y25	Z25	X26	Y26	Z26	X27	Y27	Z27	X28	Y28	Z28	X29	Y29	Z29	X30	Y30	Z30	X31	Y31	Z31	X32	Y32	Z32	X33	Y33	Z33	X34	Y34	Z34	X35	Y35	Z35	X36	Y36	Z36	X37	Y37	Z37	X38	Y38	Z38	X39	Y39	Z39	X40	Y40	Z40	X41	Y41	Z41	X42	Y42	Z42	X43	Y43	Z43	X44	Y44	Z44	X45	Y45	Z45	X46	Y46	Z46	X47	Y47	Z47	X48	Y48	Z48	X49	Y49	Z49	X50	Y50	Z50	X51	Y51	Z51	X52	Y52	Z52	X53	Y53	Z53	X54	Y54	Z54	X55	Y55	Z55	X56	Y56	Z56	X57	Y57	Z57	X58	Y58	Z58	X59	Y59	Z59	X60	Y60	Z60	X61	Y61	Z61	

1060	5.295	-265.6870422363282	2097.16357421875	-883.704040527344	-375.4084472656251	1948.5087890625	-959.174987792969	-379.1072998046876	1843.099975585938	-899.7407226562502	-390.7451782226564	1526.261474609375	-891.9739990234377	-222.7881011962891	1812.228515625	-883.2774658203127	-239.3852539062501	1854.892333984375	-1036.47216796875	-254.1350555419922	1706.583374023438	-1211.749145507813	-226.508285522461	1667.520385742188	-1194.46923828125	-248.1123504638672	1645.29833984375	-1247.088012695313	-250.7537994384766	1558.236572265625	-1268.064575195313	-337.1424865722657	1560.338134765625	-1239.226318359375	-285.9013671875001	1364.962036132813	-1108.445068359375	-247.7052001953126	1324.21533203125	-1160.117919921875	-249.3118591308594	1331.327514648438	-1061.758422851563	-274.2463684082032	1841.242431640625	-730.5836791992189	-313.8220214843751	1691.061401367188	-568.1558837890626	-283.5206298828126	1651.911010742188	-576.1858520507814	-320.0870361328126	1629.111694335938	-533.0214843750001	-320.2688598632813	1558.198120117188	-512.9370117187501	-397.6800231933595	1536.769409179688	-541.6684570312501	-251.3460845947266	1330.156127929688	-627.1296386718751	-295.4653625488282	1353.643920898438	-684.3813476562501	-240.3622436523438	1342.899169921875	-731.3236694335939	-242.8182983398438	1319.485595703125	-1020.596008300781	-247.2416992187501	1337.781127929688	-768.1143188476565	-391.1477661132814	1428.176025390625	-896.3010253906252	-399.2042236328126	1396.56201171875	-924.9290161132815	-400.6379394531251	1397.023193359375	-867.597351074219	-331.6180114746094	1105.297119140625	-1099.896240234375	-306.6403503417969	1026.485717773438	-1108.48193359375	-256.7529907226563	1029.389404296875	-1102.51953125	-333.0610656738282	973.6643066406252	-1093.074584960938	-344.1310119628907	864.1967773437502	-1082.877197265625	-268.7551269531251	847.6074829101565	-985.3675537109377	-282.9234924316407	743.8918457031251	-1086.3759765625	-355.8074035644532	703.8692016601564	-1113.632690429688	-310.2817993164063	699.5057373046876	-1111.4287109375	-299.5927734375001	616.9045410156251	-1094.560302734375	-376.0097351074219	472.6761169433595	-1092.49853515625	-313.7537841796876	477.702362060547	-1033.367919921875	-410.2281188964845	452.7731323242189	-1029.10595703125	-223.5893554687501	372.4718933105469	-1087.679321289063	-242.0640716552735	371.1465759277344	-1133.751342773438	-302.5823364257813	360.9380493164063	-1157.863525390625	-353.5921020507813	1142.716796875	-703.1529541015626	-318.7427673339844	1088.298706054688	-696.6039428710939	-285.5458374023438	1092.698608398438	-699.3150024414064	-347.1250915527344	1008.526794433594	-712.6845092773439	-360.2246398925782	855.1870117187502	-749.5002441406251	-281.6558532714844	845.335632324219	-849.3936767578127	-290.6607971191407	708.4255981445314	-777.1992797851565	-360.6475524902344	632.8651733398439	-738.9044189453126	-314.4609680175782	627.6856689453126	-751.0517578125001	-307.5310668945313	580.0314941406251	-783.944519042969	-386.840789794922	456.3138427734376	-778.4546508789065	-321.1122436523438	476.6643371582032	-832.7229614257815	-415.0823669433595	452.364959716797	-852.3760986328127	-239.105209350586	358.7232666015626	-787.9370727539065	-258.1494750976563	350.8933715820313	-751.3367309570314	-318.0964050292969	330.7290344238282	-732.0601196289064	-355.9544067382813	1990.461669921875	-803.7332763671877	
1061	5.3	-266.9191894531251	2102.63720703125	-883.0869140625002	-376.1721801757813	1953.27490234375	-958.5613403320315	-379.2420043945313	1847.846923828125	-899.4024047851565	-391.5086364746095	1531.301025390625	-891.3983154296877	-223.3702697753907	1817.076538085938	-883.2847290039065	-240.2355194091797	1859.826904296875	-1036.545654296875	-256.6651306152344	1711.774291992188	-1212.0478515625	-228.7489471435547	1672.951416015625	-1195.863647460938	-250.6134185791016	1650.710083007813	-1247.828247070313	-252.7423095703126	1563.535766601563	-1268.4130859375	-338.7101135253907	1565.419067382813	-1238.967041015625	-286.9956970214844	1370.235961914063	-1108.191162109375	-249.1378326416016	1329.569702148438	-1160.160888671875	-250.3238372802735	1336.647216796875	-1061.577026367188	-274.3305664062501	1846.083374023438	-730.3814086914064	-314.8823547363282	1696.216552734375	-567.8931274414064	-284.5035705566407	1657.16845703125	-575.6051025390626	-321.3009338378907	1634.3203125	-532.5285644531251	-321.4589538574219	1563.423461914063	-512.6030883789064	-398.6776733398439	1541.94384765625	-541.5571899414064	-252.4719696044922	1335.343383789063	-627.0889892578126	-296.3889770507813	1358.972045898438	-684.2731933593751	-241.4261474609376	1348.263916015625	-731.2463989257814	-243.9021301269532	1324.68994140625	-1020.457275390625	-247.8157348632813	1342.98779296875	-767.6229858398439	-391.9824829101564	1432.918701171875	-896.2461547851565	-399.9424743652345	1401.555908203125	-924.6884765625002	-401.441375732422	1401.909423828125	-867.393981933594	-331.9620666503907	1110.19775390625	-1099.6572265625	-306.6987609863282	1031.77880859375	-1108.368530273438	-256.5645751953126	1034.504638671875	-1102.489013671875	-332.6318969726563	978.4922485351565	-1092.98681640625	-342.8609008789063	869.1372680664065	-1082.995239257813	-267.5972595214844	852.7548828125002	-986.0090942382815	-281.5843811035157	749.0050659179689	-1086.447875976563	-354.6228637695313	709.0119018554689	-1114.0361328125	-309.6821594238282	704.7421875000001	-1112.073364257813	-297.9705200195313	621.7943725585939	-1094.420776367188	-374.4811401367188	477.7773742675782	-1093.33447265625	-313.0962219238282	482.7082824707032	-1033.476318359375	-409.8814086914064	458.5410156250001	-1030.27587890625	-222.8443603515626	376.9573974609376	-1085.814697265625	-240.8460845947266	375.2217407226563	-1132.127563476563	-300.9260253906251	365.1083679199219	-1156.98095703125	-354.8684692382813	1147.605224609375	-703.2735595703126	-320.0255737304688	1093.19921875	-696.6417236328126	-286.9290771484376	1097.4404296875	-699.3123779296876	-348.2214965820313	1013.440368652344	-713.0992431640626	-360.4533386230469	860.2960205078127	-749.4592895507814	-281.1767883300782	850.0154418945315	-848.7774658203127	-290.8487548828126	713.2238769531251	-777.1434326171877	-360.9068908691407	637.8379516601564	-738.7871093750001	-314.7019653320313	632.4917602539064	-751.2270507812501	-307.9361572265626	584.9820556640626	-784.070983886719	-387.0719299316407	461.4793395996095	-777.8818359375002	-322.1332092285157	481.6915283203126	-833.124206542969	-416.2996520996095	457.9516906738282	-851.7226562500002	-239.7791442871094	363.6081542968751	-790.1150512695315	-258.2934875488282	355.5493164062501	-753.4500122070314	-318.0590515136719	335.2504577636719	-733.5106811523439	-356.5796813964844	1995.387573242188	-803.1967773437502	
1062	5.305	-267.7715759277344	2107.422607421875	-882.4025878906252	-377.0783081054688	1957.8466796875	-957.9976806640627	-379.6690368652344	1852.863403320313	-899.1292114257815	-392.211639404297	1536.361328125	-891.1923828125002	-223.3435974121094	1821.52978515625	-882.8240356445315	-240.8246612548829	1864.528442382813	-1036.57568359375	-258.8546142578126	1716.615966796875	-1212.276000976563	-230.2716827392579	1678.009399414063	-1196.670043945313	-252.7588195800782	1655.66943359375	-1248.24365234375	-254.8126525878907	1568.492065429688	-1268.653686523438	-340.5429687500001	1570.202270507813	-1238.44091796875	-288.0919799804688	1375.303955078125	-1107.989501953125	-250.3480072021485	1334.490234375	-1159.940307617188	-251.1845245361329	1341.825073242188	-1061.422607421875	-274.2899169921876	1850.664916992188	-730.2476196289064	-315.8074951171876	1701.0595703125	-567.6171264648439	-285.3018188476563	1661.912475585938	-575.1680908203126	-322.3879699707032	1639.101928710938	-532.3088989257814	-322.3980712890626	1568.20361328125	-512.2124023437501	-399.3299865722657	1546.850708007813	-541.7419433593751	-253.3713836669922	1340.14208984375	-626.8569946289064	-296.9822998046876	1363.933227539063	-684.2531127929689	-242.1565093994141	1353.117797851563	-731.1586303710939	-243.9729919433594	1329.81884765625	-1020.128540039063	-248.3339385986329	1347.982177734375	-767.5006103515626	-392.8073730468751	1437.634399414063	-895.755798339844	-400.7023925781251	1405.990234375	-924.3584594726565	-402.3539428710939	1406.328735351563	-867.1968994140627	-332.2193603515626	1115.00537109375	-1099.5556640625	-306.5135803222657	1036.614624023438	-1108.371948242188	-257.4932250976563	1039.88330078125	-1102.949829101563	-332.2807312011719	983.323425292969	-1092.906860351563	-341.3057250976563	873.848815917969	-1083.73681640625	-266.7595214843751	857.3965454101565	-986.0779418945315	-280.4248962402344	753.8244018554689	-1086.300415039063	-352.9656372070313	713.7832641601564	-1114.746215820313	-308.2453918457032	709.4198608398439	-1112.417236328125	-297.3540039062501	626.7105712890626	-1094.90869140625	-373.0074768066407	482.7786865234376	-1094.77880859375	-312.7759704589844	487.7558898925782	-1033.86474609375	-409.5204467773439	464.0840454101564	-1032.383422851563	-222.0813293457032	381.0882263183594	-1083.4658203125	-239.3070526123047	378.9855041503907	-1130.084716796875	-299.1384582519532	368.9490966796876	-1155.879150390625	-355.9808654785157	1152.2646484375	-703.2666625976564	-321.1391601562501	1097.850708007813	-696.4717407226564	-287.9338684082032	1102.057739257813	-699.1140747070314	-349.1748657226563	1018.217834472656	-713.4011840820314	-360.6089172363282	865.0310668945315	-749.2278442382814	-281.1641235351563	854.6844482421877	-848.2832031250002	-291.1016845703126	717.9966430664064	-777.2951660156252	-361.0649108886719	642.5301513671876	-738.6381225585939	-314.9129333496094	637.2164916992189	-751.1572875976564	-308.3291931152344	589.5677490234376	-784.169616699219	-387.2792968750001	466.1463623046876	-777.2017211914065	-323.9002990722657	486.6725158691407	-833.2576904296877	-418.0169372558595	463.2216186523439	-850.277282714844	-240.0694732666016	368.3662719726563	-792.4869384765627	-257.9129028320313	359.9911499023438	-755.5401000976564	-317.5285034179688	339.5594482421876	-734.9205932617189	-357.2540588378907	1999.958740234375	-802.558532714844	
1063	5.31	-268.3875732421876	2111.838134765625	-881.7873535156252	-377.8023681640626	1962.749877929688	-957.612243652344	-380.3107299804688	1857.510864257813	-898.4707031250002	-393.0572509765626	1541.091552734375	-890.7623291015627	-223.881332397461	1825.970092773438	-882.7153320312502	-241.5970764160157	1868.8818359375	-1036.697509765625	-261.1589660644532	1721.076538085938	-1212.530395507813	-231.5138854980469	1682.711181640625	-1197.16259765625	-255.2582550048829	1660.376098632813	-1248.7197265625	-256.5108337402344	1573.046508789063	-1268.884399414063	-342.0264282226563	1574.686889648438	-1238.1904296875	-289.3093872070313	1379.9677734375	-1107.726684570313	-251.5322418212891	1339.060913085938	-1159.754638671875	-252.0395050048829	1346.418212890625	-1061.275390625	-274.3735351562501	1855.298583984375	-729.8691406250001	-316.5995483398438	1705.44384765625	-567.5760498046876	-286.0390319824219	1666.421020507813	-574.9101562500001	-323.2977600097657	1643.654663085938	-532.1450805664064	-323.1782226562501	1572.742431640625	-512.1843872070314	-400.1825561523439	1551.320556640625	-542.0161743164064	-254.2353057861329	1344.29736328125	-626.6698608398439	-297.7182006835938	1368.420654296875	-684.1614379882814	-242.8784484863282	1357.489501953125	-730.9583129882814	-244.7628631591797	1334.490600585938	-1020.045471191406	-249.3639678955079	1352.463256835938	-767.2650146484376	-393.5522766113282	1441.864501953125	-895.4342041015627	-401.3035583496095	1410.29541015625	-924.0961914062502	-403.1253662109376	1410.699462890625	-866.8025512695315	-332.3803405761719	1119.4541015625	-1099.300537109375	-305.4008178710938	1040.949951171875	-1107.760986328125	-256.2233886718751	1044.4970703125	-1102.554809570313	-331.8792419433594	987.774841308594	-1092.9296875	-340.2643737792969	878.5969238281252	-1084.402709960938	-266.1075744628907	862.1067504882815	-986.0745849609377	-278.9407958984376	758.3138427734376	-1086.198608398438	-351.2104187011719	718.4013061523439	-1115.591796875	-305.9818115234376	713.8440551757814	-1112.32763671875	-295.4749450683594	631.3727416992189	-1094.953491210938	-371.4083557128907	487.3186645507814	-1096.304565429688	-312.4253540039063	492.3458557128907	-1034.242553710938	-409.3489990234376	469.5092163085939	-1034.438354492188	-221.0969238281251	385.2361755371095	-1080.93115234375	-237.7679595947266	382.5525817871094	-1127.9619140625	-296.6040344238282	372.2034912109376	-1154.745483398438	-356.8049316406251	1156.764038085938	-703.3157958984376	-322.0151367187501	1102.239501953125	-696.5376586914064	-288.8383483886719	1106.513549804688	-698.9548339843751	-350.0524291992188	1022.654418945313	-713.7037963867189	-360.9226379394532	869.6303710937502	-749.0048828125001	-281.3785400390626	858.7741699218752	-848.018249511719	-291.3239135742188	722.4441528320314	-777.4161376953127	-361.0565795898438	647.1107788085939	-738.3149414062501	-315.0111999511719	641.7152709960939	-751.0783081054689	-308.7233886718751	594.0366821289064	-784.1981201171877	-387.0973205566407	470.4400329589845	-776.0230712890627	-324.9903564453126	491.3458557128907	-833.2951660156252	-419.4427490234376	468.0229492187501	-848.612731933594	-240.3376770019532	373.1658935546876	-795.0642700195315	-257.4848327636719	364.2875976562501	-757.8566284179689	-316.7193298339844	343.3880615234376	-736.3428344726564	-357.9446411132813	2004.237426757813	-801.9353027343752	
